# xmcd CD database file
#
# Track frame offsets:
#	150
#	24019
#	48418
#	79721
#	99481
#	128420
#	159414
#	176781
#	200890
#	236453
#
# Disc length: 3622 seconds
#
# Revision: 0
# Processed by: cddbd v1.5.2PL0 Copyright (c) Steve Scherf et al.
# Submitted via: CDex 1.70beta2
#
DISCID=730e240a
DTITLE=Marcos Jimenez trio - After the rain
DYEAR=2000
DGENRE=Jazz
TTITLE0=01 Natè
TTITLE1=02 Out of nowhere
TTITLE2=03 Over the rainbow
TTITLE3=04 The willing
TTITLE4=05 Baila
TTITLE5=06 Avec le Temps
TTITLE6=07 Ugly Beauty
TTITLE7=08 None is unknown
TTITLE8=09 Bye bye blackbird
TTITLE9=10 After the rain
EXTD=YEAR: 2000
EXTT0=
EXTT1=
EXTT2=
EXTT3=
EXTT4=
EXTT5=
EXTT6=
EXTT7=
EXTT8=
EXTT9=
PLAYORDER=
